<svg width="129" height="98" fill="none" xmlns="http://www.w3.org/2000/svg"><path d="M92.877 0C73.031 0 56.893 16.417 56.893 36.605c0 25.374 32.481 58.709 33.86 60.118a2.99 2.99 0 0 0 2.124.89c.768 0 1.535-.3 2.123-.89 1.38-1.41 33.861-34.744 33.861-60.118C128.861 16.417 112.723 0 92.877 0Z" fill="#FFDD65"/><path d="M2.341 35.396a.805.805 0 0 0 .207.829v.001l11.024 10.056.88.804-.253 1.164-3.25 14.898c-.072.33.06.636.269.794.192.145.42.15.61.032l.005-.003 12.576-7.823 1.092-.68 1.091.68 12.58 7.822.004.002c.1.063.195.086.282.086.1 0 .214-.031.33-.118a.785.785 0 0 0 .267-.793l-3.249-14.898-.254-1.164.88-.803 11.024-10.059.005-.004a.797.797 0 0 0 .2-.819c-.096-.31-.33-.46-.533-.48l-.001-.001-14.584-1.378-1.243-.118-.474-1.155-5.765-14.036-.001-.002c-.123-.297-.363-.419-.56-.419-.197 0-.436.124-.558.416v.002l-5.766 14.04-.474 1.155-1.244.118-14.584 1.377H2.87c-.2.02-.433.169-.529.477ZM68.185 35.396c-.1.319.002.643.206.829l.001.001 11.024 10.056.88.804-.254 1.164-3.25 14.898c-.072.33.06.636.27.794.191.145.42.15.61.032l.005-.003 12.576-7.823 1.091-.68 1.092.68 12.58 7.822.003.002a.527.527 0 0 0 .282.086.546.546 0 0 0 .331-.118.786.786 0 0 0 .267-.793l-3.249-14.898-.254-1.164.88-.803L114.3 36.223l.004-.004a.799.799 0 0 0 .202-.819c-.098-.31-.331-.46-.534-.48l-.001-.001-14.584-1.378-1.243-.118-.474-1.155-5.766-14.036v-.002c-.124-.297-.363-.419-.56-.419-.197 0-.437.124-.558.416l-.001.002-5.765 14.04-.475 1.155-1.243.118-14.585 1.377h-.003c-.2.02-.433.169-.53.477Z" fill="#ECECEC" stroke="#0A175C" stroke-width="2.7"/><path d="M38.518 44.235H90.58" stroke="#0A175C" stroke-width="2.7"/></svg>