<svg width="95" height="95" fill="none" xmlns="http://www.w3.org/2000/svg"><path d="M47.469 94.938c26.216 0 47.468-21.253 47.468-47.47C94.938 21.253 73.686 0 47.47 0 21.253 0 0 21.253 0 47.469s21.253 47.468 47.469 47.468Z" fill="#FF5C5C"/><path d="M79.088 26.567h-63.24v43.335h63.24V26.567Z" fill="#ECECEC" stroke="#0A175C" stroke-width="2.7"/><path d="M86.745 69.442H8.19v6.585h78.553v-6.585Z" fill="#ECECEC" stroke="#0A175C" stroke-width="2.7"/><path d="m46.655 40.408 1.576 1.858 1.577-1.857c.866-1.02 2.027-1.592 3.257-1.592 2.326 0 4.586 2.178 4.586 5.354 0 .819-.443 2.03-1.456 3.572-.974 1.485-2.309 3.026-3.698 4.447a60.093 60.093 0 0 1-4.263 3.937 60.114 60.114 0 0 1-4.264-3.938c-1.389-1.42-2.724-2.962-3.698-4.447-1.013-1.542-1.456-2.753-1.456-3.571 0-3.176 2.26-5.354 4.585-5.354 1.23 0 2.39.572 3.254 1.59Z" stroke="#0A175C" stroke-width="2.7"/></svg>