<svg width="104" height="98" fill="none" xmlns="http://www.w3.org/2000/svg"><path d="M.769 36.886c.632-2.063 2.363-3.528 4.413-3.722l27.844-2.669 11.01-27.21C44.846 1.292 46.696 0 48.75 0s3.902 1.292 4.716 3.289l11.01 27.204 27.846 2.671c2.047.2 3.774 1.66 4.41 3.722.637 2.06.05 4.325-1.499 5.75L74.19 62.125l6.204 28.867c.455 2.122-.327 4.315-1.994 5.588a4.938 4.938 0 0 1-3.004 1.033c-.911 0-1.816-.259-2.627-.773L48.75 81.683 24.742 96.84c-1.758 1.116-3.972 1.014-5.635-.26-1.669-1.277-2.449-3.472-1.994-5.588l6.206-28.865L2.273 42.642C.725 41.212.134 38.952.77 36.886Z" fill="#89E0D1"/><path d="M91.247 64.37a18.222 18.222 0 0 0 6.093 1.054h6.48v-4.43c-1.98 0-3.59-1.655-3.59-3.69V33.061c-.095-10.985-13.87-15.137-19.748-6.027H56.788c-4.314 0-7.822 3.609-7.822 8.043v5.829c0 4.53 3.068 8.338 7.18 9.34v8.07c0 5.65 2.47 10.718 6.356 14.123h-2.698c-7.36-.002-13.349 6.156-13.349 13.724v11.449h55.47v-11.45c0-7.567-5.988-13.725-13.35-13.725h-2.697a18.641 18.641 0 0 0 5.37-8.067Z" fill="#ECECEC"/><path d="M79.599 49.354h4.308v4.427h-4.308v-4.427ZM64.473 49.354h4.308v4.427h-4.308v-4.427Z" fill="#0A175C"/><path d="M91.247 64.37a18.222 18.222 0 0 0 6.093 1.054h6.48v-4.43c-1.98 0-3.59-1.655-3.59-3.69V33.061c-.095-10.985-13.87-15.137-19.748-6.027H56.788c-4.314 0-7.822 3.609-7.822 8.043v5.829c0 4.53 3.068 8.338 7.18 9.34v8.07c0 5.65 2.47 10.718 6.356 14.123h-2.698c-7.36-.002-13.349 6.156-13.349 13.724v11.449h55.47v-11.45c0-7.567-5.988-13.725-13.35-13.725h-2.697a18.641 18.641 0 0 0 5.37-8.067Zm4.674-31.308v24.242c0 1.323.31 2.575.859 3.68a13.754 13.754 0 0 1-4.621-.983c.049-.554.073-1.117.073-1.683v-23.24c0-3.745-2.502-6.9-5.877-7.792 4.206-2.478 9.61.784 9.566 5.776Zm-42.647 7.845v-5.83c0-1.992 1.576-3.612 3.514-3.612h27.623c4.664.199 4.66 7.03 0 7.226H56.147v6.884c-1.697-.83-2.873-2.61-2.873-4.668Zm28.336 35.96c-.607 2.42-2.196 4.478-4.444 5.633l-2.976 1.53-2.976-1.53a8.67 8.67 0 0 1-4.444-5.632h14.84Zm16.007 9.297v7.02H50.763v-7.02c0-5.126 4.056-9.296 9.041-9.296h2.564c.67 4.12 3.196 7.68 6.92 9.594l4.902 2.52 4.902-2.52c3.726-1.915 6.25-5.475 6.92-9.594h2.564c4.985 0 9.04 4.171 9.04 9.296ZM60.454 58.316V43.12h23.957c1.263 0 2.458-.31 3.514-.858v16.055c-.756 18.739-26.721 18.724-27.47-.002Z" fill="#0A175C"/><path d="M74.19 63.43c-1.306 0-2.37-1.092-2.37-2.437h-4.308c.367 9.108 12.99 9.102 13.355 0h-4.309c.002 1.345-1.062 2.437-2.368 2.437Z" fill="#0A175C"/></svg>