<svg width="99" height="98" fill="none" xmlns="http://www.w3.org/2000/svg"><path d="M62.252 0C42.406 0 26.268 16.417 26.268 36.605c0 25.373 32.481 58.708 33.86 60.117a2.99 2.99 0 0 0 2.124.89c.768 0 1.535-.3 2.123-.89 1.38-1.409 33.861-34.744 33.861-60.117C98.236 16.417 82.098 0 62.252 0Z" fill="#FFDD65"/><path d="M64.012 25.036H2.302v40.272h61.71V25.036Z" fill="#ECECEC" stroke="#0A175C" stroke-width="2.7"/><path d="m3.299 45.812 62.781.126M26.268 38.408l38.28.125M26.268 32.283l38.28.126M1.768 52.19l62.78.126M1.768 58.314l62.78.126" stroke="#0A175C" stroke-width="2"/></svg>