<svg width="105" height="95" fill="none" xmlns="http://www.w3.org/2000/svg"><path d="M48.049 95c26.216 0 47.469-21.252 47.469-47.469 0-26.216-21.253-47.468-47.47-47.468C21.834.063.58 21.314.58 47.53.58 73.748 21.833 95 48.05 95Z" fill="#FF5C5C"/><path fill-rule="evenodd" clip-rule="evenodd" d="M46.518 27.381a7.656 7.656 0 0 0-7.657 7.657v26.884a7.656 7.656 0 0 0 7.657 7.656h1.073v11.641l14.38-11.641h33.257a7.656 7.656 0 0 0 7.656-7.656V35.038a7.656 7.656 0 0 0-7.656-7.657h-48.71Z" fill="#ECECEC"/><path d="M47.592 69.578h2.067v-2.067h-2.067v2.067Zm0 11.641h-2.067v4.333l3.368-2.726-1.301-1.607Zm14.38-11.64V67.51h-.732l-.569.46 1.3 1.607ZM40.929 35.037a5.59 5.59 0 0 1 5.59-5.59v-4.134c-5.37 0-9.724 4.353-9.724 9.724h4.134Zm0 26.884V35.038h-4.134v26.884h4.134Zm5.59 5.589a5.59 5.59 0 0 1-5.59-5.59h-4.134c0 5.371 4.353 9.724 9.723 9.724v-4.134Zm1.073 0h-1.074v4.134h1.074v-4.134Zm2.067 13.708V69.58h-4.134v11.64h4.134Zm11.012-13.247-14.38 11.64 2.602 3.214 14.38-11.641-2.602-3.213Zm34.558-.461H61.972v4.134h33.257v-4.134Zm5.589-5.59a5.59 5.59 0 0 1-5.59 5.59v4.134c5.371 0 9.724-4.353 9.724-9.723h-4.134Zm0-26.883v26.884h4.134V35.038h-4.134Zm-5.59-5.59a5.59 5.59 0 0 1 5.59 5.59h4.134c0-5.37-4.353-9.724-9.723-9.724v4.134Zm-48.71 0h48.71v-4.134h-48.71v4.134Z" fill="#0A175C"/><path d="M53.411 43.387h28.374M53.411 53.572h36.377" stroke="#0A175C" stroke-width="2.7"/></svg>