<svg width="107" height="98" fill="none" xmlns="http://www.w3.org/2000/svg"><path d="M75.914 0c-8.758 0-16.65 3.949-22.232 10.277C48.108 3.95 40.216 0 31.458 0 14.557 0 .86 14.71.86 32.862c0 25.418 52.829 64.75 52.829 64.75s52.828-39.324 52.828-64.75C106.518 14.71 92.815 0 75.914 0Z" fill="#89E0D1"/><path d="M72.65 52.025c-.12 5.48-2.563 10.38-6.355 13.699 8.888.24 16.047 7.75 16.047 16.946v8.213h-55.45V82.67c0-9.196 7.16-16.706 16.047-16.945-3.791-3.32-6.234-8.22-6.355-13.698h-.68c-8.478-.36-8.483-12.787 0-13.149h.676v-2.937a10.605 10.605 0 0 1-4.307-8.571V15.312h4.307c0 2.44 1.93 4.426 4.305 4.426h21.54c5.64 0 10.23 4.718 10.23 10.518v8.62h.675c8.478.36 8.484 12.787 0 13.149h-.68Z" fill="#ECECEC"/><path d="M66.296 65.724c3.79-3.318 6.234-8.219 6.355-13.699h.679c8.484-.362 8.478-12.79 0-13.148h-.675v-8.622c0-5.799-4.59-10.517-10.23-10.517h-21.54c-2.374 0-4.305-1.986-4.305-4.425h-4.307V27.37c0 3.532 1.702 6.663 4.307 8.571v2.937h-.675c-8.484.362-8.479 12.79 0 13.148h.679c.12 5.48 2.564 10.38 6.355 13.7-8.887.238-16.046 7.748-16.046 16.944v8.213h55.449V82.67c0-9.196-7.159-16.706-16.046-16.946Zm-16.703 4.422h10.049v3.004c0 2.432-1.925 4.413-4.293 4.413h-1.465c-2.366 0-4.292-1.98-4.292-4.413v-3.004ZM73.33 43.305c2.77.118 2.767 4.175 0 4.292h-.675v-4.292h.675ZM36.58 22.979a8.374 8.374 0 0 0 4.303 1.187h21.54c3.267 0 5.924 2.732 5.924 6.09v3.202H42.503c-3.266 0-5.923-2.732-5.923-6.09v-4.39ZM33.818 45.45c0-1.184.936-2.146 2.087-2.146h.675v4.292h-.675c-1.15 0-2.087-.962-2.087-2.146Zm7.068 6.15V37.757a10.07 10.07 0 0 0 1.617.13h25.844v13.714c-.755 18.734-26.71 18.719-27.46 0Zm37.15 34.855H31.198V82.67c0-6.907 5.464-12.524 12.18-12.524h1.907v3.004c0 4.875 3.858 8.84 8.598 8.84h1.465c4.742 0 8.598-3.965 8.598-8.84v-3.004h1.906c6.717 0 12.18 5.617 12.18 12.524l.002 3.786Z" fill="#0A175C"/><path d="M60.025 42.64h4.307v4.427h-4.307V42.64ZM44.904 42.64h4.307v4.427h-4.307V42.64ZM54.618 61.138c3.68 0 6.675-3.078 6.675-6.86h-4.307c-.13 3.229-4.608 3.227-4.737 0h-4.307c0 3.782 2.995 6.86 6.676 6.86Z" fill="#0A175C"/></svg>