<svg width="122" height="122" fill="none" xmlns="http://www.w3.org/2000/svg"><path d="M.22 77.29a6.108 6.108 0 0 0 2.81 3.665l11.665 6.78v13.437a6.108 6.108 0 0 0 6.107 6.108h13.435l6.78 11.666A6.111 6.111 0 0 0 46.269 122a6.107 6.107 0 0 0 3.114-.855l11.604-6.719 11.665 6.719a6.106 6.106 0 0 0 8.366-2.199l6.718-11.666h13.436a6.107 6.107 0 0 0 6.107-6.108V87.735l11.665-6.78a6.11 6.11 0 0 0 2.26-8.306l-6.779-11.728 6.779-11.666a6.111 6.111 0 0 0-2.26-8.306l-11.665-6.719V20.793a6.109 6.109 0 0 0-6.107-6.108H87.736L81.018 3.019a6.107 6.107 0 0 0-3.725-2.81 6.107 6.107 0 0 0-4.641.611L60.926 7.539 49.322.82a6.107 6.107 0 0 0-8.306 2.199l-6.779 11.666H20.802a6.107 6.107 0 0 0-6.107 6.108V34.23L3.09 40.949a6.107 6.107 0 0 0-2.26 8.367L7.55 60.921.831 72.587a6.109 6.109 0 0 0-.61 4.703Zm19.666-19.362-5.436-9.222 9.466-5.497a6.109 6.109 0 0 0 2.993-5.253V26.9h10.87a6.106 6.106 0 0 0 5.314-3.054l5.618-9.406 9.406 5.436a6.108 6.108 0 0 0 6.107 0l9.466-5.436 5.557 9.406a6.107 6.107 0 0 0 5.314 3.054h10.81v10.872a6.108 6.108 0 0 0 3.053 5.252l9.405 5.497-5.435 9.407a6.11 6.11 0 0 0 0 6.107l5.435 9.406-9.405 5.498a6.107 6.107 0 0 0-3.054 5.252v10.872H84.194a6.107 6.107 0 0 0-5.252 3.054l-5.435 9.406-9.467-5.436a6.107 6.107 0 0 0-6.107 0l-9.221 5.436-5.436-9.406a6.107 6.107 0 0 0-5.313-3.054H26.909V84.192a6.108 6.108 0 0 0-2.993-4.947l-9.466-5.497 5.436-9.406a6.108 6.108 0 0 0 0-6.413Z" fill="#C4C4C4"/></svg>