<svg aria-hidden="true" style="position: absolute; width: 0; height: 0; overflow: hidden;" version="1.1" xmlns="http://www.w3.org/2000/svg" xmlns:xlink="http://www.w3.org/1999/xlink">
   <defs>
      <symbol id="icon-benefits-3" viewBox="0 0 32 32">
         <path fill="#ffdd65" style="fill: var(--color1, #ffdd65)" d="M20.327 0c-6.48 0-11.75 5.361-11.75 11.953 0 8.285 10.606 19.17 11.056 19.63 0.177 0.179 0.422 0.29 0.693 0.291h0c0.251 0 0.501-0.098 0.693-0.291 0.451-0.46 11.057-11.345 11.057-19.63 0-6.592-5.27-11.953-11.75-11.953z"></path>
         <path fill="#ececec" style="fill: var(--color2, #ececec); stroke: var(--color3, #0a175c)" stroke="#0a175c" stroke-linejoin="miter" stroke-linecap="butt" stroke-miterlimit="4" stroke-width="0.8816" d="M20.902 8.175h-20.15v13.15h20.15v-13.15z"></path>
         <path fill="none" stroke="#0a175c" style="stroke: var(--color3, #0a175c)" stroke-linejoin="miter" stroke-linecap="butt" stroke-miterlimit="4" stroke-width="0.6531" d="M1.077 14.959l20.5 0.041M8.577 12.541l12.5 0.041M8.577 10.541l12.5 0.041M0.577 17.042l20.5 0.041M0.577 19.041l20.5 0.041"></path>
      </symbol>
      <symbol id="icon-benefits-4" viewBox="0 0 42 32">
         <path fill="#ffdd65" style="fill: var(--color1, #ffdd65)" d="M30.327 0c-6.48 0-11.75 5.361-11.75 11.953 0 8.285 10.606 19.17 11.056 19.63 0.177 0.179 0.422 0.29 0.693 0.291h0c0.251 0 0.501-0.098 0.693-0.291 0.451-0.46 11.057-11.345 11.057-19.63 0-6.592-5.27-11.953-11.75-11.953z"></path>
         <path fill="#ececec" style="fill: var(--color2, #ececec); stroke: var(--color3, #0a175c)" stroke="#0a175c" stroke-linejoin="miter" stroke-linecap="butt" stroke-miterlimit="4" stroke-width="0.8816" d="M0.764 11.558c-0.008 0.024-0.013 0.052-0.013 0.081 0 0.074 0.031 0.141 0.080 0.189l0 0v0l3.887 3.546-0.083 0.38-1.061 4.865c-0.023 0.108 0.020 0.208 0.088 0.259 0.063 0.047 0.137 0.049 0.199 0.010l0.002-0.001 4.463-2.776 0.356 0.222 4.109 2.555c0.033 0.021 0.064 0.028 0.092 0.028 0.033 0 0.070-0.010 0.108-0.039 0.058-0.047 0.094-0.119 0.094-0.199 0-0.021-0.003-0.042-0.008-0.062l0 0.002-1.144-5.245 3.889-3.548c0.048-0.047 0.078-0.113 0.078-0.186 0-0.029-0.005-0.057-0.014-0.083l0.001 0.002c-0.031-0.101-0.108-0.15-0.174-0.157l-0-0-5.168-0.489-0.155-0.377-1.883-4.584c-0.040-0.097-0.119-0.137-0.183-0.137s-0.142 0.040-0.182 0.136v0.001l-2.038 4.962-5.17 0.488c-0.065 0.007-0.141 0.055-0.173 0.156zM22.265 11.558c-0.033 0.104 0.001 0.21 0.067 0.271l0 0 3.887 3.546-0.083 0.38-1.061 4.865c-0.023 0.108 0.020 0.208 0.088 0.259 0.062 0.047 0.137 0.049 0.199 0.010l0.002-0.001 4.463-2.776 4.465 2.777c0.026 0.017 0.058 0.028 0.092 0.028h0c0.041-0.001 0.079-0.015 0.108-0.039l-0 0c0.058-0.047 0.094-0.119 0.094-0.199 0-0.021-0.003-0.042-0.008-0.062l0 0.002-1.144-5.245 3.888-3.548c0.049-0.047 0.079-0.114 0.079-0.187 0-0.029-0.005-0.057-0.013-0.082l0.001 0.002c-0.032-0.101-0.108-0.15-0.174-0.157l-0-0-5.168-0.489-0.155-0.377-1.883-4.584c-0.041-0.097-0.119-0.137-0.183-0.137s-0.143 0.040-0.182 0.136l-0 0.001-2.038 4.962-5.169 0.488c-0.065 0.007-0.141 0.055-0.173 0.156z"></path>
         <path fill="none" stroke="#0a175c" style="stroke: var(--color3, #0a175c)" stroke-linejoin="miter" stroke-linecap="butt" stroke-miterlimit="4" stroke-width="0.8816" d="M12.577 14.444h17"></path>
      </symbol>
      <symbol id="icon-benefits-5" viewBox="0 0 35 32">
         <path fill="#89e0d1" style="fill: var(--color4, #89e0d1)" d="M24.788 0c-2.86 0-5.437 1.289-7.259 3.356-1.82-2.066-4.397-3.356-7.257-3.356-5.519 0-9.991 4.803-9.991 10.73 0 8.3 17.25 21.143 17.25 21.143s17.25-12.841 17.25-21.143c0-5.927-4.474-10.73-9.993-10.73z"></path>
         <path fill="#ececec" style="fill: var(--color2, #ececec)" d="M23.722 16.988c-0.039 1.789-0.837 3.389-2.075 4.473 2.902 0.078 5.24 2.531 5.24 5.533v2.682h-18.106v-2.682c0-3.003 2.338-5.455 5.24-5.533-1.238-1.084-2.036-2.684-2.075-4.473h-0.222c-2.768-0.118-2.77-4.175 0-4.294h0.221v-0.959c-0.857-0.638-1.406-1.648-1.406-2.786 0-0.004 0-0.009 0-0.013v0.001-3.937h1.406c0 0.797 0.63 1.445 1.406 1.445h7.033c1.842 0 3.34 1.541 3.34 3.434v2.815h0.22c2.768 0.118 2.77 4.175 0 4.294h-0.222z"></path>
         <path fill="#0a175c" style="fill: var(--color3, #0a175c)" d="M21.648 21.461c1.238-1.083 2.036-2.684 2.075-4.473h0.222c2.77-0.118 2.768-4.176 0-4.293h-0.22v-2.815c0-1.894-1.499-3.434-3.34-3.434h-7.033c-0.775 0-1.406-0.649-1.406-1.445h-1.406v3.937c0 1.153 0.556 2.176 1.406 2.799v0.959h-0.22c-2.77 0.118-2.769 4.176 0 4.293h0.222c0.039 1.789 0.837 3.389 2.075 4.473-2.902 0.078-5.239 2.53-5.239 5.533v2.682h18.106v-2.682c0-3.003-2.338-5.455-5.239-5.533zM16.194 22.905h3.281v0.981c0 0.794-0.629 1.441-1.402 1.441h-0.478c-0.773 0-1.401-0.647-1.401-1.441v-0.981zM23.945 14.14c0.904 0.039 0.904 1.363 0 1.401h-0.22v-1.401h0.22zM11.944 7.503c0.401 0.243 0.885 0.388 1.403 0.388 0.001 0 0.001 0 0.002 0h7.033c1.067 0 1.934 0.892 1.934 1.989v1.046h-8.439c-1.066 0-1.934-0.892-1.934-1.989v-1.433zM11.043 14.841c0-0.387 0.306-0.701 0.681-0.701h0.22v1.401h-0.22c-0.376 0-0.681-0.314-0.681-0.701zM13.351 16.849v-4.52c0.158 0.027 0.341 0.042 0.527 0.042 0 0 0.001 0 0.001 0h8.439v4.478c-0.247 6.117-8.722 6.112-8.967 0zM25.481 28.23h-15.294v-1.236c0-2.255 1.784-4.089 3.977-4.089h0.623v0.981c0 1.592 1.26 2.887 2.807 2.887h0.478c1.548 0 2.808-1.295 2.808-2.887v-0.981h0.622c2.193 0 3.977 1.834 3.977 4.089l0.001 1.236z"></path>
         <path fill="#0a175c" style="fill: var(--color3, #0a175c)" d="M19.6 13.923h1.406v1.446h-1.406v-1.446zM14.663 13.923h1.406v1.446h-1.406v-1.446zM17.834 19.963c1.202 0 2.18-1.005 2.18-2.24h-1.406c-0.042 1.054-1.505 1.054-1.547 0h-1.406c0 1.235 0.978 2.24 2.18 2.24z"></path>
      </symbol>
      <symbol id="icon-benefits-6" viewBox="0 0 34 32">
         <path fill="#89e0d1" style="fill: var(--color4, #89e0d1)" d="M0.251 12.044c0.206-0.674 0.772-1.152 1.441-1.215l9.092-0.871 3.595-8.885c0.264-0.651 0.869-1.073 1.539-1.073s1.274 0.422 1.54 1.074l3.595 8.883 9.093 0.872c0.668 0.065 1.232 0.542 1.44 1.215s0.016 1.412-0.489 1.878l-6.871 6.364 2.026 9.426c0.149 0.693-0.107 1.409-0.651 1.825-0.268 0.209-0.61 0.336-0.981 0.337h-0c-0.297 0-0.593-0.085-0.858-0.252l-7.843-4.949-7.839 4.949c-0.574 0.364-1.297 0.331-1.84-0.085-0.545-0.417-0.8-1.134-0.651-1.825l2.026-9.425-6.872-6.362c-0.505-0.467-0.698-1.205-0.491-1.88z"></path>
         <path fill="#ececec" style="fill: var(--color2, #ececec)" d="M29.795 21.019c0.592 0.218 1.276 0.344 1.989 0.344h2.116v-1.447c-0.647 0-1.172-0.54-1.172-1.205v-7.916c-0.031-3.587-4.529-4.943-6.448-1.968h-7.737c-1.409 0-2.554 1.178-2.554 2.626v1.903c0 1.479 1.002 2.723 2.345 3.050v2.635c0 1.845 0.807 3.5 2.075 4.612h-0.881c-2.403-0.001-4.359 2.010-4.359 4.481v3.738h18.113v-3.739c0-2.471-1.955-4.482-4.359-4.482h-0.881c0.79-0.696 1.394-1.584 1.741-2.591l0.013-0.043z"></path>
         <path fill="#0a175c" style="fill: var(--color3, #0a175c)" d="M25.991 16.116h1.407v1.446h-1.407v-1.446zM21.052 16.116h1.407v1.446h-1.407v-1.446z"></path>
         <path fill="#0a175c" style="fill: var(--color3, #0a175c)" d="M29.795 21.019c0.592 0.218 1.276 0.344 1.989 0.344h2.116v-1.447c-0.647 0-1.172-0.54-1.172-1.205v-7.916c-0.031-3.587-4.529-4.943-6.448-1.968h-7.737c-1.409 0-2.554 1.178-2.554 2.626v1.903c0 1.479 1.002 2.723 2.345 3.050v2.635c0 1.845 0.807 3.5 2.075 4.612h-0.881c-2.403-0.001-4.359 2.010-4.359 4.481v3.738h18.113v-3.739c0-2.471-1.955-4.482-4.359-4.482h-0.881c0.79-0.696 1.394-1.584 1.741-2.591l0.013-0.043zM31.321 10.796v7.916c0 0.432 0.101 0.841 0.28 1.202-0.548-0.021-1.064-0.137-1.539-0.332l0.030 0.011c0.016-0.181 0.024-0.365 0.024-0.55v-7.589c0-1.223-0.817-2.253-1.919-2.544 1.373-0.809 3.138 0.256 3.124 1.886zM17.396 13.357v-1.904c0-0.65 0.515-1.179 1.147-1.179h9.020c1.523 0.065 1.522 2.296 0 2.36h-9.229v2.248c-0.554-0.271-0.938-0.852-0.938-1.524zM26.648 25.099c-0.198 0.79-0.717 1.462-1.451 1.839l-0.972 0.5-0.972-0.5c-0.719-0.376-1.248-1.032-1.447-1.819l-0.004-0.020h4.846zM31.875 28.135v2.292h-15.299v-2.292c0-1.674 1.324-3.035 2.952-3.035h0.837c0.219 1.345 1.044 2.508 2.26 3.133l1.601 0.823 1.601-0.823c1.217-0.625 2.041-1.788 2.26-3.133h0.837c1.628 0 2.952 1.362 2.952 3.035zM19.74 19.042v-4.962h7.823c0.412 0 0.803-0.101 1.147-0.28v5.242c-0.247 6.119-8.725 6.114-8.97-0.001z"></path>
         <path fill="#0a175c" style="fill: var(--color3, #0a175c)" d="M24.225 20.712c-0.426 0-0.774-0.357-0.774-0.796h-1.407c0.12 2.974 4.242 2.972 4.361 0h-1.407c0.001 0.439-0.347 0.796-0.773 0.796z"></path>
      </symbol>
      <symbol id="icon-certifications" viewBox="0 0 32 32">
         <path fill="#c4c4c4" style="fill: var(--color5, #c4c4c4)" d="M0.058 20.273c0.115 0.412 0.379 0.75 0.73 0.957l0.007 0.004 3.060 1.778v3.524c0 0.885 0.717 1.602 1.602 1.602h3.524l1.778 3.060c0.281 0.479 0.792 0.797 1.377 0.801h0.001c0.301-0 0.583-0.083 0.824-0.228l-0.007 0.004 3.044-1.762 3.060 1.762c0.232 0.138 0.511 0.22 0.81 0.22 0.588 0 1.102-0.317 1.381-0.789l0.004-0.007 1.762-3.060h3.524c0.885 0 1.602-0.717 1.602-1.602 0-0 0-0 0-0v0-3.524l3.060-1.778c0.482-0.282 0.801-0.798 0.801-1.388 0-0.291-0.077-0.563-0.213-0.798l0.004 0.008-1.778-3.076 1.778-3.060c0.131-0.227 0.209-0.5 0.209-0.791 0-0.59-0.319-1.106-0.794-1.384l-0.008-0.004-3.060-1.762v-3.524c-0-0.885-0.717-1.602-1.602-1.602h-3.524l-1.762-3.060c-0.215-0.361-0.559-0.626-0.966-0.735l-0.011-0.003c-0.125-0.035-0.268-0.055-0.416-0.055-0.295 0-0.572 0.080-0.809 0.219l0.008-0.004-3.076 1.762-3.044-1.762c-0.229-0.134-0.504-0.213-0.798-0.213-0.585 0-1.097 0.314-1.377 0.782l-0.004 0.007-1.778 3.060h-3.524c-0.885 0-1.602 0.717-1.602 1.602 0 0 0 0 0 0v0 3.524l-3.044 1.762c-0.486 0.281-0.809 0.799-0.809 1.392 0 0.296 0.080 0.573 0.22 0.81l-0.004-0.008 1.763 3.044-1.762 3.060c-0.137 0.231-0.218 0.509-0.218 0.807 0 0.152 0.021 0.299 0.061 0.438l-0.003-0.011zM5.216 15.194l-1.426-2.419 2.483-1.442c0.473-0.284 0.785-0.795 0.785-1.378v-2.9h2.851c0.002 0 0.004 0 0.007 0 0.59 0 1.105-0.319 1.383-0.793l0.004-0.008 1.474-2.467 2.467 1.426c0.23 0.135 0.506 0.215 0.801 0.215s0.571-0.080 0.808-0.219l-0.008 0.004 2.483-1.426 1.458 2.467c0.282 0.482 0.797 0.801 1.387 0.801 0.002 0 0.005 0 0.007 0h2.835v2.852c0.004 0.586 0.321 1.097 0.793 1.373l0.008 0.004 2.467 1.442-1.426 2.467c-0.135 0.23-0.214 0.506-0.214 0.801s0.080 0.571 0.219 0.808l-0.004-0.008 1.426 2.467-2.467 1.442c-0.48 0.28-0.797 0.791-0.801 1.377v2.852h-2.931c-0.586 0.004-1.097 0.322-1.373 0.794l-0.004 0.008-1.426 2.467-2.483-1.426c-0.23-0.135-0.506-0.215-0.801-0.215s-0.571 0.080-0.808 0.219l0.008-0.004-2.419 1.426-1.426-2.467c-0.282-0.482-0.797-0.801-1.387-0.801-0.002 0-0.004 0-0.007 0h-2.899v-2.851c-0.029-0.552-0.334-1.027-0.778-1.294l-0.007-0.004-2.483-1.442 1.426-2.467c0.15-0.239 0.239-0.53 0.239-0.841s-0.089-0.602-0.242-0.848l0.004 0.007z"></path>
      </symbol>
      <symbol id="icon-email" viewBox="0 0 40 32">
         <path fill="#fff" style="fill: var(--color6, #fff)" d="M38.572 0h-37.143c-0.79 0-1.428 0.65-1.428 1.454v29.092c0 0.804 0.638 1.454 1.428 1.454h37.143c0.79 0 1.428-0.65 1.428-1.454v-29.092c0-0.804-0.638-1.454-1.428-1.454zM34.964 4.95l-14.085 11.159c-0.348 0.277-0.835 0.277-1.182 0l-14.091-11.159c-0.077-0.060-0.125-0.153-0.125-0.258 0-0.038 0.007-0.075 0.019-0.109l-0.001 0.002c0.022-0.066 0.063-0.121 0.116-0.16l0.001-0.001c0.052-0.038 0.116-0.061 0.187-0.061h28.964c0 0 0.001 0 0.001 0 0.141 0 0.261 0.092 0.302 0.22l0.001 0.002c0.011 0.031 0.017 0.067 0.017 0.105 0 0.105-0.048 0.198-0.124 0.259l-0.001 0z"></path>
      </symbol>
      <symbol id="icon-logo-footer" viewBox="0 0 117 32">
         <path fill="#fff" style="fill: var(--color6, #fff)" d="M2.816 31.811c1.345 0 2.403-0.902 2.652-2.248h-1.19c-0.194 0.684-0.747 1.12-1.462 1.12-0.926 0-1.618-0.731-1.618-1.711s0.692-1.718 1.618-1.718c0.684 0 1.229 0.404 1.454 1.042h1.175c-0.249-1.291-1.307-2.17-2.629-2.17-1.602 0-2.816 1.229-2.816 2.847 0 1.61 1.214 2.839 2.816 2.839zM8.901 31.811c1.657 0 2.894-1.221 2.894-2.847 0-1.618-1.237-2.839-2.893-2.839-1.665 0-2.909 1.229-2.909 2.839 0 1.618 1.245 2.847 2.909 2.847zM8.901 30.698c-0.972 0-1.711-0.754-1.711-1.734s0.738-1.727 1.711-1.727c0.972 0 1.696 0.739 1.696 1.727s-0.724 1.734-1.695 1.734zM16.167 26.242v3.321l-2.388-3.321h-1.058v5.444h1.151v-3.399l2.465 3.399h0.988v-5.444h-1.158zM22.319 26.242h-4.207v1.097h1.516v4.348h1.175v-4.348h1.516v-1.097zM26.197 31.686h1.283l-2.201-5.444h-1.113l-2.139 5.444h1.252l0.373-1.026h2.162l0.381 1.026zM24.735 27.681l0.716 1.952h-1.431l0.715-1.952zM30.439 31.811c1.345 0 2.403-0.902 2.652-2.248h-1.19c-0.194 0.684-0.747 1.12-1.462 1.12-0.926 0-1.618-0.731-1.618-1.711s0.692-1.718 1.618-1.718c0.684 0 1.229 0.404 1.454 1.042h1.174c-0.249-1.291-1.307-2.17-2.629-2.17-1.602 0-2.815 1.229-2.815 2.847 0 1.61 1.213 2.839 2.816 2.839zM37.6 26.242h-4.208v1.097h1.516v4.348h1.175v-4.348h1.517v-1.097zM42.516 31.811c1.345 0 2.403-0.902 2.652-2.248h-1.19c-0.194 0.684-0.747 1.12-1.462 1.12-0.926 0-1.618-0.731-1.618-1.711s0.692-1.718 1.618-1.718c0.684 0 1.229 0.404 1.454 1.042h1.175c-0.249-1.291-1.307-2.17-2.629-2.17-1.602 0-2.816 1.229-2.816 2.847 0 1.61 1.214 2.839 2.816 2.839zM47.194 30.597v-1.12h1.89v-1.065h-1.89v-1.081h2.092v-1.089h-3.266v5.444h3.352v-1.089h-2.178zM53.809 26.242v3.321l-2.388-3.321h-1.058v5.444h1.151v-3.399l2.465 3.399h0.988v-5.444h-1.159zM59.961 26.242h-4.207v1.097h1.516v4.348h1.175v-4.348h1.516v-1.097zM61.928 30.597v-1.12h1.89v-1.065h-1.89v-1.081h2.092v-1.089h-3.266v5.444h3.352v-1.089h-2.178zM68.093 31.686h1.314l-1.205-2.053c0.607-0.296 0.995-0.871 0.995-1.587 0-1.050-0.817-1.804-1.906-1.804h-2.193v5.444h1.175v-1.851h0.754l1.066 1.851zM66.273 27.331h0.941c0.498 0 0.786 0.303 0.786 0.708 0 0.412-0.288 0.707-0.786 0.707h-0.941v-1.415zM73.906 31.795c1.128 0 2.061-0.568 2.061-1.742 0-1.221-1.042-1.477-1.866-1.688-0.583-0.14-1.050-0.256-1.050-0.638 0-0.358 0.381-0.521 0.762-0.521 0.444 0 0.832 0.218 0.832 0.692h1.159c0-1.088-0.708-1.758-1.96-1.758-1.205 0-1.975 0.591-1.975 1.633 0 1.174 0.995 1.415 1.82 1.618 0.591 0.132 1.089 0.249 1.089 0.676 0 0.405-0.436 0.638-0.879 0.638-0.482 0-0.918-0.256-0.918-0.778h-1.19c0 1.167 0.863 1.867 2.115 1.867zM79.499 31.811c1.657 0 2.893-1.221 2.893-2.847 0-1.618-1.237-2.839-2.893-2.839-1.665 0-2.909 1.229-2.909 2.839 0 1.618 1.245 2.847 2.909 2.847zM79.499 30.698c-0.972 0-1.711-0.754-1.711-1.734s0.739-1.727 1.711-1.727 1.695 0.739 1.695 1.727c0 0.988-0.723 1.734-1.695 1.734zM84.494 30.597v-4.355h-1.174v5.444h3.266v-1.089h-2.092zM89.432 31.811c1.283 0 2.248-0.895 2.248-2.17v-3.399h-1.182v3.344c0 0.677-0.444 1.113-1.066 1.113-0.63 0-1.073-0.436-1.073-1.113v-3.344h-1.182v3.399c0 1.276 0.964 2.17 2.255 2.17zM96.615 26.242h-4.208v1.097h1.517v4.348h1.174v-4.348h1.517v-1.097zM97.409 31.686h1.175v-5.444h-1.175v5.444zM102.413 31.811c1.657 0 2.893-1.221 2.893-2.847 0-1.618-1.237-2.839-2.893-2.839-1.664 0-2.909 1.229-2.909 2.839 0 1.618 1.245 2.847 2.909 2.847zM102.413 30.698c-0.972 0-1.711-0.754-1.711-1.734s0.739-1.727 1.711-1.727c0.972 0 1.695 0.739 1.695 1.727s-0.723 1.734-1.695 1.734zM109.68 26.242v3.321l-2.388-3.321h-1.058v5.444h1.151v-3.399l2.465 3.399h0.988v-5.444h-1.159zM113.887 31.795c1.127 0 2.061-0.568 2.061-1.742 0-1.221-1.042-1.477-1.866-1.688-0.583-0.14-1.050-0.256-1.050-0.638 0-0.358 0.381-0.521 0.762-0.521 0.444 0 0.832 0.218 0.832 0.692h1.159c0-1.088-0.707-1.758-1.96-1.758-1.205 0-1.975 0.591-1.975 1.633 0 1.174 0.995 1.415 1.82 1.618 0.591 0.132 1.089 0.249 1.089 0.676 0 0.405-0.436 0.638-0.879 0.638-0.482 0-0.918-0.256-0.918-0.778h-1.19c0 1.167 0.863 1.867 2.115 1.867zM0.565 11.017h9.965v3.22h-9.964v-3.22zM18.017 0.879v16.518h9.739v3.519h-13.285v-20.036h3.547zM48.418 11.016c-0.057 5.188-3.041 10.376-9.684 10.376s-9.74-5.128-9.74-10.376c0-6.321 4.336-10.555 9.796-10.555 6.474 0.060 9.684 5.307 9.627 10.555zM38.735 17.874c4.447 0 6.137-3.578 6.193-6.858 0.056-3.339-1.745-7.096-6.080-7.156-4.054 0-6.418 3.22-6.305 7.156 0.056 3.34 1.745 6.858 6.193 6.858zM51.233 11.017h9.965v3.22h-9.965v-3.22zM78.819 5.769c-1.295-1.311-3.153-2.027-4.785-2.027-4.054 0-6.531 3.28-6.531 7.394 0 3.28 1.802 6.679 6.531 6.679 1.464 0 2.758-0.358 4.279-1.61v-3.578h-4.842v-3.399h8.107v8.468c-1.857 2.266-4.222 3.578-7.544 3.578-7.094 0-10.021-4.949-10.021-10.197 0-5.665 3.322-10.853 10.021-10.853 2.533 0 5.067 1.014 7.037 3.041l-2.252 2.504zM103.477 11.017c-0.056 5.188-3.040 10.376-9.683 10.376s-9.74-5.069-9.74-10.316c0-6.321 4.335-10.555 9.796-10.555 6.474 0 9.683 5.248 9.627 10.495zM93.794 17.875c4.448 0 6.137-3.578 6.193-6.858 0.056-3.34-1.745-7.096-6.080-7.156-4.054 0-6.418 3.22-6.305 7.156 0.056 3.339 1.745 6.858 6.193 6.858zM106.292 11.017h9.965v3.22h-9.965v-3.22z"></path>
      </symbol>
      <symbol id="icon-logo-header" viewBox="0 0 117 32">
         <path fill="#ffe074" style="fill: var(--color7, #ffe074)" d="M2.816 31.811c1.345 0 2.403-0.902 2.652-2.248h-1.19c-0.194 0.684-0.747 1.12-1.462 1.12-0.926 0-1.618-0.731-1.618-1.711s0.692-1.718 1.618-1.718c0.684 0 1.229 0.404 1.454 1.042h1.175c-0.249-1.291-1.307-2.17-2.629-2.17-1.602 0-2.816 1.229-2.816 2.847 0 1.61 1.214 2.839 2.816 2.839zM8.901 31.811c1.657 0 2.894-1.221 2.894-2.847 0-1.618-1.237-2.839-2.893-2.839-1.665 0-2.909 1.229-2.909 2.839 0 1.618 1.245 2.847 2.909 2.847zM8.901 30.698c-0.972 0-1.711-0.754-1.711-1.734s0.738-1.727 1.711-1.727c0.972 0 1.696 0.739 1.696 1.727s-0.724 1.734-1.695 1.734zM16.167 26.242v3.321l-2.388-3.321h-1.058v5.444h1.151v-3.399l2.465 3.399h0.988v-5.444h-1.158zM22.319 26.242h-4.207v1.097h1.516v4.348h1.175v-4.348h1.516v-1.097zM26.197 31.686h1.283l-2.201-5.444h-1.113l-2.139 5.444h1.252l0.373-1.026h2.162l0.381 1.026zM24.735 27.681l0.716 1.952h-1.431l0.715-1.952zM30.439 31.811c1.345 0 2.403-0.902 2.652-2.248h-1.19c-0.194 0.684-0.747 1.12-1.462 1.12-0.926 0-1.618-0.731-1.618-1.711s0.692-1.718 1.618-1.718c0.684 0 1.229 0.404 1.454 1.042h1.174c-0.249-1.291-1.307-2.17-2.629-2.17-1.602 0-2.815 1.229-2.815 2.847 0 1.61 1.213 2.839 2.816 2.839zM37.6 26.242h-4.208v1.097h1.516v4.348h1.175v-4.348h1.517v-1.097zM42.516 31.811c1.345 0 2.403-0.902 2.652-2.248h-1.19c-0.194 0.684-0.747 1.12-1.462 1.12-0.926 0-1.618-0.731-1.618-1.711s0.692-1.718 1.618-1.718c0.684 0 1.229 0.404 1.454 1.042h1.175c-0.249-1.291-1.307-2.17-2.629-2.17-1.602 0-2.816 1.229-2.816 2.847 0 1.61 1.214 2.839 2.816 2.839zM47.194 30.597v-1.12h1.89v-1.065h-1.89v-1.081h2.092v-1.089h-3.266v5.444h3.352v-1.089h-2.178zM53.809 26.242v3.321l-2.388-3.321h-1.058v5.444h1.151v-3.399l2.465 3.399h0.988v-5.444h-1.159zM59.961 26.242h-4.207v1.097h1.516v4.348h1.175v-4.348h1.516v-1.097zM61.928 30.597v-1.12h1.89v-1.065h-1.89v-1.081h2.092v-1.089h-3.266v5.444h3.352v-1.089h-2.178zM68.093 31.686h1.314l-1.205-2.053c0.607-0.296 0.995-0.871 0.995-1.587 0-1.050-0.817-1.804-1.906-1.804h-2.193v5.444h1.175v-1.851h0.754l1.066 1.851zM66.273 27.331h0.941c0.498 0 0.786 0.303 0.786 0.708 0 0.412-0.288 0.707-0.786 0.707h-0.941v-1.415zM73.906 31.795c1.128 0 2.061-0.568 2.061-1.742 0-1.221-1.042-1.477-1.866-1.688-0.583-0.14-1.050-0.256-1.050-0.638 0-0.358 0.381-0.521 0.762-0.521 0.444 0 0.832 0.218 0.832 0.692h1.159c0-1.088-0.708-1.758-1.96-1.758-1.205 0-1.975 0.591-1.975 1.633 0 1.174 0.995 1.415 1.82 1.618 0.591 0.132 1.089 0.249 1.089 0.676 0 0.405-0.436 0.638-0.879 0.638-0.482 0-0.918-0.256-0.918-0.778h-1.19c0 1.167 0.863 1.867 2.115 1.867zM79.499 31.811c1.657 0 2.893-1.221 2.893-2.847 0-1.618-1.237-2.839-2.893-2.839-1.665 0-2.909 1.229-2.909 2.839 0 1.618 1.245 2.847 2.909 2.847zM79.499 30.698c-0.972 0-1.711-0.754-1.711-1.734s0.739-1.727 1.711-1.727 1.695 0.739 1.695 1.727c0 0.988-0.723 1.734-1.695 1.734zM84.494 30.597v-4.355h-1.174v5.444h3.266v-1.089h-2.092zM89.432 31.811c1.283 0 2.248-0.895 2.248-2.17v-3.399h-1.182v3.344c0 0.677-0.444 1.113-1.066 1.113-0.63 0-1.073-0.436-1.073-1.113v-3.344h-1.182v3.399c0 1.276 0.964 2.17 2.255 2.17zM96.615 26.242h-4.208v1.097h1.517v4.348h1.174v-4.348h1.517v-1.097zM97.409 31.686h1.175v-5.444h-1.175v5.444zM102.413 31.811c1.657 0 2.893-1.221 2.893-2.847 0-1.618-1.237-2.839-2.893-2.839-1.664 0-2.909 1.229-2.909 2.839 0 1.618 1.245 2.847 2.909 2.847zM102.413 30.698c-0.972 0-1.711-0.754-1.711-1.734s0.739-1.727 1.711-1.727c0.972 0 1.695 0.739 1.695 1.727s-0.723 1.734-1.695 1.734zM109.68 26.242v3.321l-2.388-3.321h-1.058v5.444h1.151v-3.399l2.465 3.399h0.988v-5.444h-1.159zM113.887 31.795c1.127 0 2.061-0.568 2.061-1.742 0-1.221-1.042-1.477-1.866-1.688-0.583-0.14-1.050-0.256-1.050-0.638 0-0.358 0.381-0.521 0.762-0.521 0.444 0 0.832 0.218 0.832 0.692h1.159c0-1.088-0.707-1.758-1.96-1.758-1.205 0-1.975 0.591-1.975 1.633 0 1.174 0.995 1.415 1.82 1.618 0.591 0.132 1.089 0.249 1.089 0.676 0 0.405-0.436 0.638-0.879 0.638-0.482 0-0.918-0.256-0.918-0.778h-1.19c0 1.167 0.863 1.867 2.115 1.867z"></path>
         <path fill="#5ca7ff" style="fill: var(--color8, #5ca7ff)" d="M0.565 11.017h9.965v3.22h-9.964v-3.22zM18.017 0.879v16.518h9.739v3.519h-13.285v-20.036h3.547zM48.418 11.016c-0.057 5.188-3.041 10.376-9.684 10.376s-9.74-5.128-9.74-10.376c0-6.321 4.336-10.555 9.796-10.555 6.474 0.060 9.684 5.307 9.627 10.555zM38.735 17.874c4.447 0 6.137-3.578 6.193-6.858 0.056-3.339-1.745-7.096-6.080-7.156-4.054 0-6.418 3.22-6.305 7.156 0.056 3.34 1.745 6.858 6.193 6.858zM51.233 11.017h9.965v3.22h-9.965v-3.22zM78.819 5.769c-1.295-1.311-3.153-2.027-4.785-2.027-4.054 0-6.531 3.28-6.531 7.394 0 3.28 1.802 6.679 6.531 6.679 1.464 0 2.758-0.358 4.279-1.61v-3.578h-4.842v-3.399h8.107v8.468c-1.857 2.266-4.222 3.578-7.544 3.578-7.094 0-10.021-4.949-10.021-10.197 0-5.665 3.322-10.853 10.021-10.853 2.533 0 5.067 1.014 7.037 3.041l-2.252 2.504zM103.477 11.017c-0.056 5.188-3.040 10.376-9.683 10.376s-9.74-5.069-9.74-10.316c0-6.321 4.335-10.555 9.796-10.555 6.474 0 9.683 5.248 9.627 10.495zM93.794 17.875c4.448 0 6.137-3.578 6.193-6.858 0.056-3.339-1.745-7.096-6.080-7.156-4.054 0-6.418 3.22-6.305 7.156 0.056 3.339 1.745 6.858 6.193 6.858zM106.292 11.017h9.965v3.22h-9.965v-3.22z"></path>
      </symbol>
      <symbol id="icon-social-facebook" viewBox="0 0 32 32">
         <path d="M31.763 15.979c0-8.825-7.111-15.979-15.879-15.979-8.774 0.002-15.884 7.154-15.884 15.981 0 7.972 5.807 14.583 13.399 15.782v-11.164h-4.030v-4.617h4.033v-3.525c0-4.004 2.373-6.215 5.998-6.215 1.74 0 3.556 0.312 3.556 0.312v3.93h-2.003c-1.971 0-2.586 1.233-2.586 2.497v2.999h4.403l-0.703 4.616h-3.703v11.164c7.591-1.197 13.399-7.807 13.399-15.781z"></path>
      </symbol>
      <symbol id="icon-social-instagram" viewBox="0 0 33 32">
         <path d="M32.561 9.375c-0.020-1.407-0.289-2.745-0.766-3.98l0.027 0.078c-0.845-2.136-2.506-3.795-4.59-4.617l-0.055-0.019c-1.142-0.441-2.463-0.71-3.843-0.739l-0.012-0c-1.696-0.076-2.234-0.097-6.542-0.097-4.307 0-4.859 0-6.543 0.097-1.392 0.030-2.712 0.298-3.934 0.766l0.080-0.027c-2.137 0.842-3.798 2.501-4.624 4.582l-0.019 0.055c-0.443 1.14-0.712 2.458-0.739 3.836l-0 0.012c-0.076 1.695-0.097 2.233-0.097 6.533s0 4.85 0.098 6.533c0.028 1.391 0.297 2.711 0.766 3.931l-0.027-0.079c0.846 2.136 2.508 3.794 4.591 4.615l0.055 0.019c1.138 0.459 2.455 0.745 3.834 0.792l0.019 0.001c1.7 0.076 2.236 0.098 6.545 0.098 4.307 0 4.859 0 6.543-0.098 1.392-0.029 2.713-0.297 3.935-0.765l-0.080 0.027c2.137-0.844 3.797-2.502 4.625-4.581l0.019-0.055c0.442-1.141 0.711-2.461 0.738-3.84l0-0.012c0.076-1.692 0.1-2.229 0.1-6.532-0.004-4.3-0.004-4.846-0.103-6.53zM16.768 23.985c-4.504 0-8.154-3.643-8.154-8.14 0-4.498 3.65-8.141 8.154-8.141 2.163 0 4.237 0.858 5.766 2.385 1.475 1.472 2.387 3.508 2.387 5.756s-0.912 4.284-2.387 5.756l-0 0c-1.476 1.473-3.514 2.383-5.764 2.383-0.001 0-0.001 0-0.002 0h0zM25.247 9.3c-1.048-0.001-1.898-0.849-1.901-1.896v-0c0-0.001 0-0.003 0-0.005 0-1.046 0.848-1.894 1.894-1.894 0.003 0 0.005 0 0.008 0h-0c1.048 0.002 1.896 0.85 1.9 1.897v0c0 1.050-0.85 1.899-1.9 1.899z"></path>
         <path d="M17.447 21.516c2.744 0 4.968-2.224 4.968-4.968s-2.224-4.968-4.968-4.968v0c-2.744 0-4.968 2.224-4.968 4.968s2.224 4.968 4.968 4.968v0z"></path>
      </symbol>
      <symbol id="icon-social-linked" viewBox="0 0 33 32">
         <path d="M16.495 0c-8.772 0-15.881 7.111-15.881 15.881s7.11 15.881 15.881 15.881c8.77 0 15.881-7.111 15.881-15.881s-7.111-15.881-15.881-15.881zM12.608 22.464h-3.218v-10.349h3.215v10.349zM10.978 10.844c-1.016 0-1.672-0.719-1.672-1.609 0-0.909 0.676-1.607 1.714-1.607 1.037 0 1.672 0.699 1.692 1.607 0 0.889-0.655 1.609-1.734 1.609zM24.352 22.464h-3.217v-5.736c0-1.335-0.466-2.24-1.63-2.24-0.889 0-1.415 0.613-1.649 1.203-0.087 0.211-0.108 0.508-0.108 0.805v5.967h-3.218v-7.048c0-1.292-0.041-2.372-0.084-3.302h2.793l0.148 1.438h0.064c0.423-0.676 1.461-1.671 3.196-1.671 2.116 0 3.703 1.419 3.703 4.466v6.119z"></path>
      </symbol>
      <symbol id="icon-social-twitter" viewBox="0 0 33 32">
         <path d="M16.207 0c-8.77 0-15.881 7.111-15.881 15.881s7.111 15.881 15.881 15.881c8.772 0 15.881-7.111 15.881-15.881s-7.11-15.881-15.881-15.881zM22.668 13.010c0.007 0.135 0.008 0.271 0.008 0.403 0 4.136-3.144 8.902-8.898 8.902-0.005 0-0.010 0-0.016 0-1.775 0-3.428-0.524-4.812-1.426l0.034 0.021c0.243 0.030 0.493 0.041 0.747 0.041 1.465 0 2.814-0.498 3.884-1.339-1.361-0.027-2.508-0.919-2.915-2.147l-0.006-0.022c0.468 0.088 0.951 0.070 1.41-0.056-1.441-0.299-2.509-1.559-2.509-3.067v-0.038c0.422 0.233 0.904 0.376 1.417 0.392-0.845-0.569-1.394-1.521-1.394-2.602 0-0.581 0.158-1.125 0.435-1.591l-0.008 0.014c1.55 1.896 3.842 3.134 6.425 3.27l0.022 0.001c-0.053-0.215-0.083-0.461-0.083-0.715 0-1.728 1.401-3.129 3.129-3.129 0.9 0 1.711 0.38 2.282 0.988l0.002 0.002c0.749-0.151 1.414-0.414 2.014-0.774l-0.028 0.016c-0.243 0.737-0.729 1.338-1.361 1.723l-0.014 0.008c0.666-0.082 1.273-0.256 1.835-0.51l-0.040 0.016c-0.42 0.628-0.948 1.177-1.56 1.62z"></path>
      </symbol>
      <symbol id="icon-solutions-cub" viewBox="0 0 32 32">
         <path d="M0.207 5.333c0-2.945 2.388-5.333 5.333-5.333v0h21.334c2.945 0 5.333 2.388 5.333 5.333v0 21.334c0 2.945-2.388 5.333-5.333 5.333h-21.334c-2.945-0-5.333-2.388-5.333-5.333v-21.334zM17.984 8.889c-0.018-0.968-0.807-1.746-1.778-1.746s-1.76 0.778-1.778 1.744l-0 0.002v14.222c0 0.982 0.796 1.778 1.778 1.778s1.778-0.796 1.778-1.778v-14.222zM10.873 14.222c0-0.982-0.796-1.778-1.778-1.778s-1.778 0.796-1.778 1.778v8.889c0.013 0.972 0.804 1.755 1.778 1.755s1.765-0.783 1.778-1.754v-8.89zM25.096 19.555c0-0.982-0.796-1.778-1.778-1.778s-1.778 0.796-1.778 1.778v0 3.555c0 0.982 0.796 1.778 1.778 1.778s1.778-0.796 1.778-1.778v-3.555z"></path>
      </symbol>
      <symbol id="icon-solutions-cub-arrows" viewBox="0 0 33 32">
         <path d="M5.942 0c-1.166 0-2.239 0.397-3.092 1.064l0.011-0.008c-0.863 0.674-1.493 1.609-1.774 2.686l-0.008 0.035c0.312-0.111 0.673-0.176 1.048-0.176 0.712 0 1.371 0.232 1.904 0.623l-0.009-0.006c0.415 0.305 0.748 0.698 0.977 1.152l0.008 0.018c0.208 0.412 0.329 0.898 0.329 1.412 0 0.571-0.15 1.107-0.413 1.571l0.008-0.016c-0.258 0.457-0.61 0.833-1.031 1.112l-0.012 0.007c-0.496 0.329-1.106 0.525-1.761 0.525-0.433 0-0.845-0.085-1.222-0.24l0.021 0.008v14.032c0 1.326 0.528 2.598 1.468 3.536 0.908 0.905 2.161 1.464 3.544 1.464 0 0 0.001 0 0.001 0h9.461c-1.028-1.579-1.64-3.511-1.64-5.585 0-0.005 0-0.010 0-0.015v0.001c0-0.005 0-0.011 0-0.016 0-1.909 0.518-3.698 1.422-5.232l-0.026 0.048h-5.206c-0.266 0-0.521-0.105-0.709-0.293-0.181-0.181-0.293-0.431-0.293-0.707s0.112-0.526 0.293-0.707l0-0c0.182-0.181 0.432-0.293 0.709-0.293 0 0 0 0 0 0h6.714c0.951-0.99 2.093-1.79 3.366-2.343l0.067-0.026c1.203-0.525 2.604-0.831 4.077-0.831 0.005 0 0.010 0 0.014 0h-0.001c0.005 0 0.012-0 0.018-0 2.078 0 4.014 0.61 5.638 1.66l-0.041-0.025v-9.435c0-1.326-0.528-2.598-1.468-3.535-0.908-0.905-2.161-1.464-3.544-1.464-0 0-0.001 0-0.001 0h-18.851zM8.95 11.4c0.001-0.553 0.449-1 1.002-1 0 0 0.001 0 0.001 0h10.829c0.415 0 0.771 0.252 0.924 0.611l0.003 0.007c0.048 0.113 0.077 0.245 0.077 0.383 0 0.415-0.253 0.77-0.613 0.921l-0.007 0.002c-0.113 0.048-0.245 0.076-0.384 0.076h-10.829c-0 0-0.001 0-0.001 0-0.553 0-1.001-0.448-1.002-1v-0zM2.131 4.8c-0.001 0-0.002 0-0.003 0-0.553 0-1.053 0.223-1.416 0.585l0-0c-0.362 0.361-0.586 0.861-0.586 1.413 0 0.001 0 0.001 0 0.002v-0c0 0.001 0 0.003 0 0.004 0 0.551 0.224 1.051 0.586 1.411l0 0c0.362 0.361 0.862 0.585 1.414 0.585 0.002 0 0.003 0 0.005 0h-0c0 0 0 0 0.001 0 0.553 0 1.054-0.224 1.418-0.586l-0 0c0.362-0.362 0.587-0.862 0.587-1.414s-0.224-1.052-0.587-1.414l-0-0c-0.363-0.362-0.864-0.586-1.418-0.586-0 0-0.001 0-0.001 0h0zM33.015 23.2c0 4.86-3.951 8.8-8.824 8.8s-8.824-3.94-8.824-8.8 3.95-8.8 8.824-8.8c4.873 0 8.824 3.94 8.824 8.8zM23.154 18.634c-0.145-0.145-0.346-0.235-0.567-0.235s-0.422 0.090-0.567 0.235l-4.011 4c-0.145 0.145-0.235 0.345-0.235 0.566s0.090 0.421 0.235 0.566l4.011 4c0.144 0.139 0.341 0.225 0.557 0.225 0.221 0 0.422-0.090 0.567-0.234l-0 0c0.145-0.145 0.235-0.345 0.235-0.566 0-0.216-0.086-0.412-0.225-0.556l0 0-2.642-2.634h9.294c0 0 0 0 0.001 0 0.221 0 0.422-0.089 0.567-0.234l-0 0c0.146-0.145 0.236-0.345 0.236-0.567 0-0.441-0.358-0.799-0.799-0.799-0.001 0-0.003 0-0.004 0h-9.293l2.641-2.634c0.145-0.145 0.235-0.345 0.235-0.566s-0.090-0.421-0.235-0.566v0z"></path>
      </symbol>
      <symbol id="icon-solutions-men" viewBox="0 0 32 32">
         <path d="M13.692 8.082c2.242 0.434 3.912 2.381 3.912 4.719 0 1.002-0.307 1.933-0.832 2.703l0.011-0.017 12.297 9.545c0.267-0.141 0.584-0.224 0.92-0.224 1.105 0 2 0.896 2 2 0 0.444-0.145 0.855-0.39 1.187l0.004-0.005c-0.368 0.498-0.953 0.818-1.613 0.818-1.105 0-2-0.895-2-2 0-0.12 0.011-0.238 0.031-0.353l-0.002 0.012-12.507-9.709c-0.759 0.526-1.7 0.841-2.713 0.841-2.651 0-4.8-2.149-4.8-4.8 0-2.335 1.667-4.28 3.876-4.711l0.030-0.005-0.001-8.082h1.778v8.082h0.001zM14.402 12.8c0 0.884-0.716 1.6-1.6 1.6s-1.6-0.716-1.6-1.6v0c0-0.884 0.716-1.6 1.6-1.6s1.6 0.716 1.6 1.6v0z"></path>
         <path d="M19.223 12.786c0-0 0-0.001 0-0.001 0-2.576-1.521-4.796-3.714-5.811l-0.040-0.016v-6.863c3.812 0.335 5.793 1.536 7.566 3.18 0.089 0.084 0.177 0.165 0.263 0.243v0.001c0.756 0.693 1.357 1.245 1.667 2.072l3.764 10.020c0.072 0.185 0.113 0.4 0.113 0.624 0 0.982-0.796 1.777-1.777 1.777-0 0-0.001 0-0.001 0h-1.449v2.079l-6.734-5.229c0.218-0.616 0.343-1.327 0.343-2.067 0-0.002 0-0.005 0-0.007v0l-0.001-0.001zM10.136 6.974v-6.76c-7.991 1.203-10.136 7.165-10.136 10.43 0 5.126 3.274 9.103 4.809 10.696v10.66h15.211v-5.788h3.816c0.268 0 0.524-0.061 0.752-0.167l-9.409-7.307c-0.721 0.305-1.559 0.483-2.439 0.483-3.535 0-6.4-2.865-6.4-6.4 0-2.592 1.541-4.824 3.756-5.83l0.040-0.016z"></path>
      </symbol>
      <symbol id="icon-tell" viewBox="0 0 24 32">
         <path fill="#fff" style="fill: var(--color6, #fff)" d="M6.369 0.171c0.339-0.108 0.73-0.17 1.135-0.17 0.534 0 1.043 0.108 1.506 0.304l-0.025-0.010c0.845 0.358 1.523 0.974 1.949 1.748l0.010 0.020 0.146 0.298 1.3 2.942c0.273 0.603 0.433 1.308 0.433 2.050 0 0.283-0.023 0.561-0.068 0.831l0.004-0.029c-0.164 1.006-0.605 1.888-1.241 2.59l0.004-0.004-0.261 0.264-2.051 1.947c-0.369 0.356-0.092 1.733 1.244 4.091 1.204 2.121 2.182 3.111 2.664 3.164h0.084l0.104-0.020 4.030-1.254c0.541-0.169 1.12-0.176 1.664-0.020 0.565 0.166 1.044 0.48 1.407 0.898l0.003 0.004 0.18 0.231 2.667 3.76c0.466 0.651 0.745 1.464 0.745 2.341 0 1.017-0.375 1.947-0.994 2.659l0.004-0.005-0.24 0.252-1.065 1.028c-0.922 0.891-2.096 1.527-3.405 1.788l-0.044 0.007c-0.386 0.078-0.829 0.123-1.283 0.123-0.927 0-1.811-0.187-2.616-0.524l0.045 0.017c-3.804-1.561-7.26-5.125-10.399-10.659-3.145-5.548-4.452-10.382-3.868-14.524 0.189-1.309 0.711-2.47 1.478-3.427l-0.011 0.014c0.77-0.963 1.775-1.707 2.93-2.149l0.428-0.144 1.409-0.432z"></path>
      </symbol>
      <symbol id="icon-benefits-2" viewBox="0 0 35 32">
         <path fill="#ff5c5c" style="fill: var(--color9, #ff5c5c)" d="M16.185 32c8.831 0 15.99-7.159 15.99-15.99s-7.159-15.989-15.99-15.989c-8.83 0-15.989 7.158-15.989 15.989s7.159 15.99 15.99 15.99z"></path>
         <path fill="#ececec" style="fill: var(--color2, #ececec)" d="M15.669 9.223c-0 0-0 0-0 0-1.424 0-2.579 1.155-2.579 2.579 0 0 0 0 0 0v-0 9.056c0 1.424 1.155 2.579 2.579 2.579 0 0 0 0 0 0h0.361v3.921l4.844-3.921h11.202c1.424 0 2.579-1.155 2.579-2.579v0-9.056c0-0 0-0 0-0 0-1.424-1.155-2.579-2.579-2.579h-16.408z"></path>
         <path fill="#0a175c" style="fill: var(--color3, #0a175c)" d="M16.031 23.437h0.696v-0.696h-0.696v0.696zM16.031 27.358h-0.696v1.46l1.134-0.918-0.438-0.541zM20.875 23.437v-0.697h-0.247l-0.192 0.155 0.438 0.541zM13.787 11.802c0-1.040 0.843-1.883 1.883-1.883v0-1.393c-1.809 0-3.275 1.466-3.275 3.275h1.393zM13.787 20.858v-9.055h-1.393v9.056h1.393zM15.67 22.74c-1.040 0-1.883-0.843-1.883-1.883v0h-1.393c0 1.809 1.466 3.275 3.275 3.275v-1.393zM16.031 22.74h-0.362v1.393h0.362v-1.392zM16.727 27.358v-3.92h-1.393v3.921h1.393zM20.437 22.895l-4.844 3.921 0.876 1.083 4.844-3.921-0.876-1.082zM32.077 22.74h-11.202v1.393h11.202v-1.392zM33.96 20.857c0 1.040-0.843 1.883-1.883 1.883v0 1.393c1.809 0 3.275-1.466 3.275-3.275h-1.392zM33.96 11.802v9.056h1.392v-9.055h-1.392zM32.077 9.919c1.040 0 1.883 0.843 1.883 1.883v0h1.392c0-1.809-1.466-3.275-3.275-3.275v1.393zM15.669 9.919h16.408v-1.393h-16.408v1.393z"></path>
         <path fill="none" stroke="#0a175c" style="stroke: var(--color3, #0a175c)" stroke-linejoin="miter" stroke-linecap="butt" stroke-miterlimit="4" stroke-width="0.9095" d="M17.991 14.615h9.558M17.991 18.045h12.253"></path>
      </symbol>
      <symbol id="icon-benefits-1" viewBox="0 0 32 32">
         <path fill="#ff5c5c" style="fill: var(--color9, #ff5c5c)" d="M15.99 31.979c8.831 0 15.989-7.159 15.989-15.99s-7.158-15.989-15.989-15.989c-8.831 0-15.99 7.159-15.99 15.99s7.159 15.989 15.99 15.989z"></path>
         <path fill="#ececec" style="fill: var(--color2, #ececec); stroke: var(--color3, #0a175c)" stroke="#0a175c" stroke-linejoin="miter" stroke-linecap="butt" stroke-miterlimit="4" stroke-width="0.9095" d="M26.64 8.949h-21.302v14.597h21.302v-14.597z"></path>
         <path fill="#ececec" style="fill: var(--color2, #ececec); stroke: var(--color3, #0a175c)" stroke="#0a175c" stroke-linejoin="miter" stroke-linecap="butt" stroke-miterlimit="4" stroke-width="0.9095" d="M29.219 23.391h-26.461v2.218h26.46v-2.218z"></path>
         <path fill="none" stroke="#0a175c" style="stroke: var(--color3, #0a175c)" stroke-linejoin="miter" stroke-linecap="butt" stroke-miterlimit="4" stroke-width="0.9095" d="M15.715 13.611l0.531 0.626 0.531-0.626c0.292-0.344 0.683-0.536 1.097-0.536 0.784 0 1.545 0.734 1.545 1.803 0 0.276-0.149 0.684-0.49 1.203-0.328 0.5-0.778 1.019-1.246 1.498-0.45 0.457-0.918 0.89-1.405 1.301l-0.031 0.025c-0.518-0.436-0.987-0.869-1.434-1.324l-0.003-0.003c-0.468-0.478-0.918-0.998-1.246-1.498-0.341-0.519-0.49-0.927-0.49-1.203 0-1.070 0.761-1.803 1.544-1.803 0.414 0 0.805 0.193 1.096 0.536z"></path>
      </symbol>
   </defs>
</svg>