<svg width="237" height="65" fill="none" xmlns="http://www.w3.org/2000/svg"><path d="M5.719 64.616c2.733 0 4.881-1.833 5.387-4.566H8.689c-.395 1.39-1.517 2.275-2.97 2.275-1.88 0-3.286-1.485-3.286-3.476 0-1.99 1.406-3.49 3.286-3.49 1.39 0 2.496.82 2.954 2.116h2.386c-.506-2.622-2.654-4.408-5.34-4.408C2.464 53.067 0 55.563 0 58.85c0 3.27 2.465 5.767 5.719 5.767ZM18.08 64.616c3.366 0 5.878-2.48 5.878-5.782 0-3.286-2.512-5.767-5.877-5.767-3.381 0-5.909 2.496-5.909 5.767 0 3.286 2.528 5.782 5.909 5.782Zm0-2.26c-1.974 0-3.475-1.532-3.475-3.522 0-1.99 1.5-3.508 3.476-3.508 1.974 0 3.444 1.501 3.444 3.508 0 2.006-1.47 3.523-3.444 3.523ZM32.84 53.304v6.746l-4.85-6.746H25.84v11.059h2.338v-6.904l5.008 6.904h2.007V53.304H32.84ZM45.335 53.304H36.79v2.228h3.08v8.831h2.386v-8.831h3.08v-2.228ZM53.212 64.363h2.607l-4.47-11.059h-2.26l-4.344 11.059h2.543l.758-2.085h4.392l.774 2.085Zm-2.97-8.136 1.454 3.965h-2.907l1.453-3.965ZM61.83 64.616c2.733 0 4.881-1.833 5.387-4.566H64.8c-.395 1.39-1.517 2.275-2.97 2.275-1.88 0-3.286-1.485-3.286-3.476 0-1.99 1.406-3.49 3.286-3.49 1.39 0 2.496.82 2.954 2.116h2.385c-.505-2.622-2.654-4.408-5.34-4.408-3.254 0-5.718 2.496-5.718 5.782 0 3.27 2.464 5.767 5.719 5.767ZM76.376 53.304h-8.547v2.228h3.08v8.831h2.386v-8.831h3.081v-2.228ZM86.36 64.616c2.733 0 4.882-1.833 5.387-4.566H89.33c-.395 1.39-1.517 2.275-2.97 2.275-1.88 0-3.286-1.485-3.286-3.476 0-1.99 1.406-3.49 3.286-3.49 1.39 0 2.496.82 2.954 2.116H91.7c-.506-2.622-2.654-4.408-5.34-4.408-3.254 0-5.719 2.496-5.719 5.782 0 3.27 2.465 5.767 5.719 5.767ZM95.862 62.151v-2.275h3.84v-2.164h-3.84v-2.196h4.25v-2.212h-6.635v11.059h6.809v-2.212h-4.424ZM109.3 53.304v6.746l-4.85-6.746h-2.149v11.059h2.338v-6.904l5.008 6.904h2.007V53.304H109.3ZM121.795 53.304h-8.546v2.228h3.08v8.831h2.386v-8.831h3.08v-2.228ZM125.792 62.151v-2.275h3.839v-2.164h-3.839v-2.196h4.25v-2.212h-6.635v11.059h6.809v-2.212h-4.424ZM138.314 64.363h2.669l-2.448-4.17c1.232-.601 2.022-1.77 2.022-3.224 0-2.132-1.659-3.665-3.871-3.665h-4.455v11.059h2.386v-3.76h1.532l2.165 3.76Zm-3.697-8.847h1.911c1.011 0 1.596.616 1.596 1.438 0 .837-.585 1.437-1.596 1.437h-1.911v-2.875ZM150.121 64.584c2.291 0 4.186-1.153 4.186-3.539 0-2.48-2.117-3.001-3.791-3.428-1.185-.284-2.133-.521-2.133-1.295 0-.727.774-1.059 1.548-1.059.901 0 1.691.443 1.691 1.406h2.354c0-2.211-1.438-3.57-3.982-3.57-2.448 0-4.012 1.2-4.012 3.318 0 2.385 2.022 2.875 3.696 3.286 1.201.268 2.212.505 2.212 1.374 0 .822-.885 1.295-1.785 1.295-.979 0-1.864-.52-1.864-1.58h-2.417c0 2.37 1.753 3.792 4.297 3.792ZM161.482 64.616c3.365 0 5.877-2.48 5.877-5.782 0-3.286-2.512-5.767-5.877-5.767-3.381 0-5.909 2.496-5.909 5.767 0 3.286 2.528 5.782 5.909 5.782Zm0-2.26c-1.975 0-3.476-1.532-3.476-3.522 0-1.99 1.501-3.508 3.476-3.508s3.444 1.501 3.444 3.508c0 2.006-1.469 3.523-3.444 3.523ZM171.628 62.151v-8.847h-2.385v11.059h6.635v-2.212h-4.25ZM181.658 64.616c2.607 0 4.566-1.817 4.566-4.408v-6.904h-2.401v6.793c0 1.375-.901 2.26-2.165 2.26-1.279 0-2.18-.885-2.18-2.26v-6.793h-2.401v6.904c0 2.591 1.959 4.408 4.581 4.408ZM196.25 53.304h-8.547v2.228h3.081v8.831h2.385v-8.831h3.081v-2.228ZM197.861 64.363h2.386V53.304h-2.386v11.059ZM208.027 64.616c3.365 0 5.877-2.48 5.877-5.782 0-3.286-2.512-5.767-5.877-5.767-3.38 0-5.908 2.496-5.908 5.767 0 3.286 2.528 5.782 5.908 5.782Zm0-2.26c-1.974 0-3.475-1.532-3.475-3.522 0-1.99 1.501-3.508 3.475-3.508 1.975 0 3.444 1.501 3.444 3.508 0 2.006-1.469 3.523-3.444 3.523ZM222.787 53.304v6.746l-4.85-6.746h-2.149v11.059h2.338v-6.904l5.008 6.904h2.007V53.304h-2.354ZM231.333 64.584c2.29 0 4.186-1.153 4.186-3.539 0-2.48-2.117-3.001-3.791-3.428-1.185-.284-2.133-.521-2.133-1.295 0-.727.774-1.059 1.548-1.059.901 0 1.69.443 1.69 1.406h2.354c0-2.211-1.437-3.57-3.981-3.57-2.448 0-4.012 1.2-4.012 3.318 0 2.385 2.022 2.875 3.696 3.286 1.201.268 2.212.505 2.212 1.374 0 .822-.885 1.295-1.785 1.295-.98 0-1.864-.52-1.864-1.58h-2.417c0 2.37 1.753 3.792 4.297 3.792Z" fill="#FFE074"/><path d="M1.147 22.378h20.241v6.54H1.148v-6.54ZM36.598 1.786v33.552H56.38v7.147H29.394V1.786h7.204ZM98.35 22.377c-.115 10.538-6.176 21.076-19.67 21.076-13.494 0-19.784-10.416-19.784-21.076C58.897 9.538 67.703.938 78.794.938c13.151.121 19.67 10.78 19.555 21.44Zm-19.67 13.93c9.034 0 12.465-7.268 12.579-13.93.114-6.783-3.545-14.414-12.35-14.535-8.234 0-13.037 6.541-12.808 14.535.114 6.784 3.545 13.93 12.579 13.93ZM104.067 22.378h20.241v6.54h-20.241v-6.54ZM160.101 11.718c-2.63-2.664-6.404-4.118-9.72-4.118-8.234 0-13.266 6.662-13.266 15.02 0 6.662 3.66 13.566 13.266 13.566 2.973 0 5.603-.727 8.691-3.27v-7.268h-9.835v-6.904h16.467v17.2c-3.773 4.602-8.576 7.267-15.323 7.267-14.409 0-20.356-10.053-20.356-20.712 0-11.507 6.747-22.045 20.356-22.045 5.146 0 10.292 2.059 14.294 6.177l-4.574 5.087ZM210.188 22.378c-.114 10.538-6.175 21.076-19.669 21.076s-19.784-10.296-19.784-20.955c0-12.84 8.806-21.44 19.898-21.44 13.151 0 19.669 10.66 19.555 21.319Zm-19.669 13.93c9.034 0 12.465-7.268 12.579-13.93.114-6.783-3.545-14.414-12.35-14.535-8.234 0-13.037 6.54-12.808 14.535.114 6.783 3.545 13.93 12.579 13.93ZM215.906 22.378h20.241v6.54h-20.241v-6.54Z" fill="#5CA7FF"/></svg>