<svg width="28" height="27" fill="none" xmlns="http://www.w3.org/2000/svg"><path d="M13.918 0C6.517 0 .518 6 .518 13.4s5.999 13.4 13.4 13.4c7.4 0 13.4-6 13.4-13.4s-6-13.4-13.4-13.4Zm-3.28 18.954H7.923v-8.732h2.713v8.732ZM9.263 9.15c-.857 0-1.411-.607-1.411-1.358 0-.767.57-1.356 1.446-1.356.875 0 1.411.59 1.428 1.356 0 .75-.553 1.358-1.463 1.358Zm11.284 9.804h-2.714v-4.84c0-1.126-.393-1.89-1.375-1.89-.75 0-1.194.517-1.391 1.015-.073.178-.091.429-.091.679v5.035h-2.715v-5.947c0-1.09-.035-2.001-.071-2.786h2.357l.125 1.213h.054c.357-.57 1.233-1.41 2.697-1.41 1.785 0 3.124 1.197 3.124 3.768v5.163Z" fill="#5CA7FF"/></svg>