<svg width="28" height="27" fill="none" xmlns="http://www.w3.org/2000/svg"><path d="M13.675 0c-7.4 0-13.4 6-13.4 13.4s6 13.4 13.4 13.4c7.401 0 13.4-6 13.4-13.4S21.076 0 13.675 0Zm5.451 10.977c.006.114.007.229.007.34 0 3.49-2.653 7.511-7.508 7.511a7.446 7.446 0 0 1-4.045-1.186c.205.025.416.035.63.035 1.236 0 2.374-.42 3.277-1.13a2.645 2.645 0 0 1-2.465-1.83c.395.074.802.059 1.19-.047a2.641 2.641 0 0 1-2.117-2.588v-.032c.356.197.763.317 1.196.331a2.638 2.638 0 0 1-.816-3.526 7.504 7.504 0 0 0 5.44 2.76 2.64 2.64 0 0 1 4.497-2.408 5.3 5.3 0 0 0 1.675-.64 2.653 2.653 0 0 1-1.16 1.46 5.305 5.305 0 0 0 1.515-.417c-.354.53-.8.993-1.316 1.367Z" fill="#5CA7FF"/></svg>