<svg width="28" height="27" fill="none" xmlns="http://www.w3.org/2000/svg"><path d="M27.473 7.91a9.686 9.686 0 0 0-.624-3.292A6.848 6.848 0 0 0 22.93.706a9.846 9.846 0 0 0-3.253-.624C18.246.018 17.792 0 14.157 0c-3.634 0-4.1 0-5.521.082a9.846 9.846 0 0 0-3.252.624 6.857 6.857 0 0 0-3.918 3.912 9.723 9.723 0 0 0-.624 3.246C.778 9.294.76 9.748.76 13.376c0 3.628 0 4.092.083 5.512a9.785 9.785 0 0 0 .624 3.25 6.85 6.85 0 0 0 3.92 3.91 9.813 9.813 0 0 0 3.251.669c1.434.064 1.887.083 5.522.083 3.634 0 4.1 0 5.521-.083a9.825 9.825 0 0 0 3.253-.623 6.87 6.87 0 0 0 3.919-3.912 9.77 9.77 0 0 0 .623-3.25c.064-1.428.084-1.881.084-5.511-.003-3.628-.003-4.089-.087-5.51ZM14.148 20.237c-3.8 0-6.88-3.074-6.88-6.868 0-3.795 3.08-6.869 6.88-6.869 1.825 0 3.575.724 4.865 2.012a6.863 6.863 0 0 1 0 9.714 6.886 6.886 0 0 1-4.865 2.011Zm7.154-12.39a1.605 1.605 0 0 1-1.604-1.6 1.598 1.598 0 0 1 1.604-1.602 1.606 1.606 0 0 1 1.603 1.601c0 .886-.717 1.602-1.603 1.602Z" fill="#5CA7FF"/><path d="M14.721 18.154a4.192 4.192 0 1 0 0-8.384 4.192 4.192 0 0 0 0 8.384Z" fill="#5CA7FF"/></svg>