<svg width="110" height="110" fill="none" xmlns="http://www.w3.org/2000/svg"><path fill-rule="evenodd" clip-rule="evenodd" d="M47.066 27.781A16.506 16.506 0 0 1 57.69 53.234l42.27 32.81a6.876 6.876 0 0 1 8.71 10.167 6.875 6.875 0 0 1-12.32-5.235L53.357 57.603a16.5 16.5 0 1 1-12.4-29.822L40.952 0h6.111v27.781h.003ZM49.507 44a5.5 5.5 0 1 1-11 0 5.5 5.5 0 0 1 11 0Z" fill="#000"/><path d="M66.08 43.951a22.003 22.003 0 0 0-12.904-20.038V.323c13.105 1.153 19.913 5.28 26.009 10.93.305.288.61.566.904.835v.003c2.597 2.383 4.663 4.28 5.73 7.122l12.937 34.442a6.109 6.109 0 0 1-5.724 8.253H88.05v7.147L64.903 51.08a21.972 21.972 0 0 0 1.18-7.126l-.004-.003ZM34.842 23.974V.736C7.373 4.87 0 25.364 0 36.59 0 54.211 11.254 67.88 16.53 73.358V110h52.287V90.102h13.118c.922 0 1.802-.208 2.585-.574L52.177 64.41a22 22 0 0 1-17.334-40.437Z" fill="#000"/></svg>