<svg width="111" height="110" fill="none" xmlns="http://www.w3.org/2000/svg"><path fill-rule="evenodd" clip-rule="evenodd" d="M.71 18.333A18.333 18.333 0 0 1 19.043 0h73.334a18.333 18.333 0 0 1 18.333 18.333v73.334A18.333 18.333 0 0 1 92.377 110H19.043A18.334 18.334 0 0 1 .71 91.667V18.333Zm61.111 12.223a6.112 6.112 0 0 0-12.222 0v48.888a6.111 6.111 0 1 0 12.222 0V30.556ZM37.377 48.889a6.11 6.11 0 1 0-12.223 0v30.555a6.112 6.112 0 0 0 12.223 0V48.89Zm48.889 18.333a6.111 6.111 0 1 0-12.223 0v12.222a6.111 6.111 0 1 0 12.222 0V67.222Z" fill="#000"/></svg>