<svg width="114" height="110" fill="none" xmlns="http://www.w3.org/2000/svg"><path d="M20.424 0a17.272 17.272 0 0 0-10.59 3.629A17.192 17.192 0 0 0 3.71 12.98a11.058 11.058 0 0 1 10.117 1.518 11.007 11.007 0 0 1 3.386 4.024 10.974 10.974 0 0 1-.258 10.2 11.012 11.012 0 0 1-3.585 3.849 11.049 11.049 0 0 1-10.18 1.007v48.234c0 4.559 1.815 8.93 5.047 12.154A17.258 17.258 0 0 0 20.424 99h32.522a35.516 35.516 0 0 1-5.637-19.25 35.487 35.487 0 0 1 4.798-17.875H34.211c-.914 0-1.79-.362-2.437-1.007a3.433 3.433 0 0 1 0-4.861A3.452 3.452 0 0 1 34.211 55h23.08a35.739 35.739 0 0 1 11.802-8.144A35.82 35.82 0 0 1 83.156 44a35.738 35.738 0 0 1 19.302 5.621V17.187c0-4.558-1.815-8.93-5.047-12.153A17.258 17.258 0 0 0 85.224 0h-64.8Zm10.34 39.188a3.443 3.443 0 0 1 3.447-3.438h37.226a3.454 3.454 0 0 1 3.184 2.122 3.43 3.43 0 0 1-1.865 4.491 3.454 3.454 0 0 1-1.319.262H34.211a3.443 3.443 0 0 1-3.446-3.438ZM7.327 16.5a6.9 6.9 0 0 0-4.878 2.01 6.864 6.864 0 0 0-2.015 4.865 6.848 6.848 0 0 0 2.015 4.865 6.884 6.884 0 0 0 4.878 2.01 6.903 6.903 0 0 0 4.875-2.014 6.866 6.866 0 0 0 0-9.722A6.903 6.903 0 0 0 7.326 16.5Zm106.162 63.25c0 16.706-13.58 30.25-30.332 30.25-16.751 0-30.332-13.544-30.332-30.25S66.404 49.5 83.156 49.5c16.752 0 30.332 13.544 30.332 30.25ZM79.591 64.056a2.761 2.761 0 0 0-3.9 0l-13.787 13.75a2.746 2.746 0 0 0 0 3.888l13.788 13.75a2.761 2.761 0 0 0 3.865-.033 2.746 2.746 0 0 0 .034-3.855L70.51 82.5h31.947a2.76 2.76 0 0 0 1.95-.805 2.747 2.747 0 0 0-1.95-4.695H70.51l9.08-9.056a2.746 2.746 0 0 0 0-3.888Z" fill="#000"/></svg>