<svg width="27" height="36" fill="none" xmlns="http://www.w3.org/2000/svg"><path d="M7.165.192a4.351 4.351 0 0 1 2.942.14 4.45 4.45 0 0 1 2.204 1.989l.164.335 1.463 3.31a5.71 5.71 0 0 1 .415 3.209 5.66 5.66 0 0 1-1.392 2.909l-.294.297-2.307 2.19c-.415.4-.103 1.95 1.4 4.602 1.354 2.386 2.455 3.5 2.997 3.56h.095l.117-.022 4.534-1.411c.609-.19 1.26-.198 1.872-.022a3.31 3.31 0 0 1 1.586 1.014l.202.26 3 4.23a4.559 4.559 0 0 1-.276 5.62l-.27.283-1.198 1.157a7.694 7.694 0 0 1-3.88 2.02 7.614 7.614 0 0 1-4.336-.433c-4.28-1.756-8.167-5.766-11.699-11.991C.966 17.197-.505 11.758.152 7.098a7.947 7.947 0 0 1 1.65-3.84A7.745 7.745 0 0 1 5.151.822L5.58.678 7.165.192Z" fill="#fff"/></svg>